<svg width="173" height="36" viewBox="0 0 173 36" fill="none" xmlns="http://www.w3.org/2000/svg">
<g clip-path="url(#clip0_29_51)">
<path d="M172.871 33.6182C172.856 33.4953 172.842 33.3741 172.826 33.2525C172.427 30.1224 171.648 27.0943 170.519 24.2811C169.413 21.5245 167.986 19.0064 166.289 16.8159C165.05 15.2143 163.676 13.7991 162.193 12.5969C162.202 12.5775 162.21 12.5574 162.219 12.538C162.684 11.4927 163.151 10.4483 163.617 9.40296C164.399 7.64903 165.182 5.89512 165.964 4.14125C166.154 3.71509 166.253 3.23047 166.251 2.73775C166.248 2.24504 166.144 1.7622 165.95 1.3394C165.769 0.947136 165.517 0.619755 165.214 0.387157C164.939 0.17503 164.63 0.0459995 164.311 0.00959645C164.067 -0.0168944 163.821 0.0108687 163.584 0.091694C163.315 0.184407 163.062 0.345296 162.841 0.565132C162.619 0.784968 162.433 1.05943 162.294 1.37277L161.313 3.57228L159.947 6.63447C159.481 7.68023 159.014 8.72423 158.548 9.76999C158.497 9.88413 158.446 9.99828 158.395 10.1133C158.325 10.0769 158.255 10.0404 158.184 10.0053C155.544 8.69934 152.743 8.03215 149.918 8.03672C149.838 8.03672 149.759 8.03672 149.679 8.03847C147.16 8.06808 144.661 8.63158 142.281 9.70677C142.013 9.82838 141.747 9.95701 141.484 10.0914C141.437 9.98467 141.388 9.87799 141.341 9.77087C140.876 8.72599 140.409 7.68111 139.943 6.63623C139.16 4.88222 138.378 3.12817 137.596 1.37408C137.394 0.921042 137.097 0.55213 136.74 0.310668C136.383 0.0692058 135.98 -0.0347826 135.579 0.0109135C135.259 0.0460646 134.95 0.175179 134.675 0.388474C134.198 0.756081 133.852 1.3526 133.71 2.0493C133.606 2.56062 133.616 3.10013 133.74 3.60389C133.787 3.78828 133.847 3.96828 133.925 4.14213C134.252 4.87486 134.58 5.60891 134.906 6.34164C135.362 7.36238 135.817 8.38311 136.273 9.40384C136.738 10.4492 137.205 11.4936 137.67 12.5389C137.674 12.5477 137.679 12.5565 137.682 12.5653C136.184 13.7749 134.796 15.2016 133.546 16.8181C132.615 18.021 131.764 19.3237 131.002 20.7122C130.376 21.85 129.814 23.0433 129.317 24.2833C128.459 26.42 127.803 28.6831 127.361 31.0236C127.223 31.7615 127.106 32.5059 127.01 33.2552C126.938 33.8148 126.879 34.3769 126.832 34.941H173C172.963 34.4998 172.919 34.0597 172.868 33.6209L172.871 33.6182Z" fill="#34A853"/>
<path d="M161.925 26.6455C162.849 25.8465 162.983 23.9982 162.225 22.5165C161.467 21.0352 160.103 20.4825 159.18 21.2815C158.256 22.0805 158.122 23.9288 158.88 25.4101C159.638 26.8918 161.002 27.4445 161.925 26.6455ZM140.992 25.4153C141.751 23.9341 141.616 22.0853 140.693 21.2863C139.768 20.4873 138.406 21.0405 137.647 22.5217C136.889 24.003 137.024 25.8517 137.947 26.6507C138.871 27.4498 140.234 26.8966 140.992 25.4153ZM103.996 23.7058C103.996 19.6808 106.232 16.5049 109.054 16.5049C111.875 16.5049 113.938 19.5912 113.938 23.7058C113.938 27.8207 111.84 30.9962 109.054 30.9962C106.267 30.9962 103.996 27.776 103.996 23.7058ZM94.2955 34.9321H98.2515V12.569H94.2951L94.2955 34.9321ZM93.6758 5.10036C93.6758 7.02328 94.8804 8.58884 96.2904 8.58884C97.7007 8.58884 98.8709 7.02328 98.8709 5.09992C98.8709 3.31089 97.7007 1.79055 96.2904 1.79055C94.8804 1.79055 93.6758 3.31133 93.6758 5.10036ZM78.1609 23.661C78.1609 19.6351 80.4315 16.5049 83.3553 16.5049C86.2797 16.5049 88.55 19.6351 88.55 23.661C88.55 27.686 86.2449 30.9958 83.3553 30.9958C80.4656 30.9958 78.1609 27.7307 78.1609 23.661ZM74.1356 23.661C74.1356 30.3693 78.1953 35.6472 83.3553 35.6472C88.5159 35.6472 92.5749 30.3697 92.5749 23.661C92.5749 16.9518 88.5845 11.853 83.3553 11.853C78.1267 11.853 74.1356 16.9966 74.1356 23.661ZM63.4369 34.9316H67.393V23.2141C67.393 18.5626 69.2848 16.5049 72.4502 16.5049C73.0347 16.5049 73.4824 16.5497 73.8947 16.684V12.1665C73.4824 11.9878 72.7593 11.8534 71.9687 11.8534C66.6016 11.8534 63.4369 16.2366 63.4369 23.2141V34.9316ZM47.5777 23.7058C47.5777 19.6799 49.8139 16.5045 52.6346 16.5045C55.456 16.5045 57.5198 19.5908 57.5198 23.7053C57.5198 27.8203 55.4215 30.9958 52.6346 30.9958C49.848 30.9958 47.5777 27.776 47.5777 23.7058ZM43.5528 23.7053C43.5528 30.1902 47.5432 35.6468 52.2561 35.6468C54.2169 35.6468 56.0061 34.6182 57.0724 32.9187H57.2448V34.9312H61.2008V0.00152588H57.2448V14.4028H57.0724C56.0402 12.7934 54.2517 11.8539 52.2561 11.8539C47.5088 11.8539 43.5528 17.2657 43.5528 23.7062M26.2142 34.9321H30.1703V21.8272C30.1703 18.6969 31.7871 16.5049 34.0232 16.5049C36.2594 16.5049 37.8762 18.6965 37.8762 21.8276V34.9321H41.8326V21.8272C41.8326 16.371 38.4955 11.8534 34.0232 11.8534C29.5512 11.8534 26.2142 16.371 26.2142 21.8276V34.9321ZM8.04991 21.5142L12.3161 5.63728H12.5222L16.7884 21.5146L8.04991 21.5142ZM0 34.9321H4.47232L6.70814 26.613H18.1299L20.3657 34.9321H24.8383L14.8959 0.00152588H9.94209L0 34.9321ZM108.675 35.6477C110.636 35.6477 112.425 34.619 113.491 32.9196H113.664V34.9321H117.62V0.00152588H113.663V14.4028H113.491C112.459 12.7934 110.671 11.8539 108.675 11.8539C103.928 11.8539 99.972 17.2657 99.972 23.7062C99.972 30.1467 103.963 35.6481 108.675 35.6481" fill="white"/>
</g>
<defs>
<clipPath id="clip0_29_51">
<rect width="173" height="36" fill="white"/>
</clipPath>
</defs>
</svg>
