<svg width="39" height="48" viewBox="0 0 39 48" fill="none" xmlns="http://www.w3.org/2000/svg">
<g clip-path="url(#clip0_29_14)">
<path d="M38.9322 9.4093L35.3916 44.0278L19.4763 47.8787L3.60478 44.0331L0.0678101 9.4093H38.9322Z" fill="#E44D26"/>
<path d="M19.5 44.9352L32.3604 41.8235L35.3859 12.2403H19.5V44.9352Z" fill="#F16529"/>
<path d="M12.6171 20.7333H19.5V16.4869H7.29987L7.41626 17.6261L8.61215 29.3283H19.5V25.0818H13.0618L12.6171 20.7333ZM13.7137 31.4516H8.82955L9.51113 38.1192L19.4776 40.5338L19.5 40.5285V36.1104L19.4787 36.1153L14.0601 34.8383L13.7137 31.4516Z" fill="#EBEBEB"/>
<path d="M3.68365 0H6.15619V2.13208H8.41804V0H10.8907V6.45647H8.41819V4.29447H6.15635V6.45647H3.68381L3.68365 0ZM14.1421 2.14112H11.9657V0H18.7928V2.14112H16.615V6.45647H14.1425V2.14112H14.1421ZM19.8763 0H22.4544L24.0403 2.26863L25.6247 0H28.2038V6.45647H25.7414V3.25629L24.0403 5.55191H23.9976L22.2955 3.25629V6.45647H19.8763V0ZM29.4343 0H31.9076V4.32239H35.3847V6.45647H29.4342L29.4343 0Z" fill="black"/>
<path d="M19.4832 29.3283H25.4745L24.9096 34.8356L19.4831 36.114V40.5318L29.4575 38.1192L29.5306 37.4017L30.6741 26.2221L30.7928 25.0818H19.4832V29.3283ZM19.4832 20.723V20.7333H31.2355L31.333 19.7789L31.5548 17.6261L31.6711 16.4869H19.4832V20.723Z" fill="white"/>
</g>
<defs>
<clipPath id="clip0_29_14">
<rect width="39" height="48" fill="white"/>
</clipPath>
</defs>
</svg>
