<svg width="72" height="75" viewBox="0 0 72 75" fill="none" xmlns="http://www.w3.org/2000/svg">
<path d="M29.5768 39.7365C29.5768 39.7365 27.7296 40.8562 30.8936 41.2348C34.7265 41.6906 36.6857 41.625 40.9089 40.7935C40.9089 40.7935 42.0221 41.5183 43.5724 42.1465C34.1021 46.3728 22.1389 41.9016 29.5768 39.7365ZM28.4186 34.2199C28.4186 34.2199 26.3464 35.8189 29.5127 36.1599C33.6077 36.6 36.8404 36.6363 42.4384 35.5137C42.4384 35.5137 43.2107 36.3316 44.4274 36.7775C32.9794 40.2662 20.2281 37.0523 28.4186 34.2199Z" fill="#0074BD"/>
<path d="M38.1741 24.8619C40.509 27.6615 37.5621 30.1787 37.5621 30.1787C37.5621 30.1787 43.4869 26.9929 40.7661 23.0021C38.2241 19.282 36.2762 17.4345 46.8248 11.0619C46.8248 11.0619 30.2659 15.3685 38.1741 24.8619Z" fill="#EA2D2E"/>
<path d="M50.6993 43.817C50.6993 43.817 52.0673 44.9918 49.1929 45.9C43.7276 47.6244 26.4431 48.1447 21.6422 45.9686C19.9176 45.1863 23.1536 44.1012 24.1712 43.8733C25.2326 43.6336 25.839 43.6776 25.839 43.6776C23.9198 42.2695 13.4331 46.4426 20.5127 47.6397C39.8199 50.8992 55.7066 46.1713 50.6993 43.817ZM30.4661 28.5041C30.4661 28.5041 21.6748 30.6797 27.3533 31.4707C29.7518 31.8047 34.5296 31.7279 38.9835 31.3389C42.6223 31.0207 46.2741 30.3404 46.2741 30.3404C46.2741 30.3404 44.9921 30.9135 44.0634 31.5733C35.1343 34.0195 17.8886 32.8799 22.8538 30.3791C27.0518 28.2633 30.4661 28.5041 30.4661 28.5041ZM46.2375 37.6858C55.3134 32.7744 51.1166 28.0541 48.1877 28.6899C47.4716 28.8457 47.1499 28.9805 47.1499 28.9805C47.1499 28.9805 47.4171 28.5445 47.925 28.3576C53.7199 26.2365 58.1754 34.616 46.0564 37.9348C46.0564 37.9348 46.1953 37.8035 46.2375 37.6858Z" fill="#0074BD"/>
<path d="M40.7666 0.769348C40.7666 0.769348 45.7926 6.00704 35.9989 14.0596C28.1453 20.5207 34.2079 24.2039 35.9955 28.4139C31.4111 24.1049 28.0485 20.3115 30.3041 16.7819C33.6167 11.601 42.7939 9.0879 40.7666 0.769348Z" fill="#EA2D2E"/>
<path d="M31.3588 50.9994C40.0686 51.5795 53.4476 50.6766 53.7643 46.3834C53.7643 46.3834 53.1557 48.0106 46.5649 49.302C39.1297 50.7598 29.9582 50.5905 24.5199 49.6553C24.5199 49.6553 25.6337 50.6162 31.3588 50.9994Z" fill="#0074BD"/>
<path d="M53.3621 58.6998H53.0966V58.5451H53.811V58.6998H53.5466V59.4715H53.3616L53.3621 58.6998ZM54.7881 58.7385H54.7847L54.5214 59.4715H54.3999L54.1384 58.7385H54.1356V59.4715H53.9601V58.5451H54.2171L54.4596 59.2008L54.7026 58.5451H54.9579V59.4715H54.7881V58.7385ZM29.9312 67.4045C29.1099 68.1463 28.2414 68.5635 27.4613 68.5635C26.3509 68.5635 25.7484 67.8686 25.7484 66.7559C25.7484 65.5518 26.3931 64.6699 28.9761 64.6699H29.9306L29.9312 67.4045ZM32.1986 70.0694V61.8211C32.1986 59.7123 31.0438 58.3213 28.2628 58.3213C26.6394 58.3213 25.2163 58.7397 24.0593 59.2717L24.3923 60.7324C25.3035 60.3838 26.4819 60.0604 27.6384 60.0604C29.2416 60.0604 29.9306 60.7324 29.9306 62.1235V63.1658H29.1296C25.2366 63.1658 23.4799 64.7391 23.4799 67.1051C23.4799 69.1436 24.6375 70.302 26.8172 70.302C28.2178 70.302 29.2646 69.6996 30.2417 68.8178L30.4194 70.0699L32.1986 70.0694ZM39.7654 70.0694H36.9377L33.534 58.5328H36.0039L38.1167 65.6221L38.5864 67.752C39.6529 64.6711 40.4089 61.5434 40.7869 58.5334H43.1893C42.5464 62.3309 41.3876 66.501 39.7654 70.0694ZM50.6149 67.4045C49.7908 68.1463 48.9218 68.5635 48.1444 68.5635C47.0329 68.5635 46.431 67.8686 46.431 66.7559C46.431 65.5518 47.0773 64.6699 49.6575 64.6699H50.6143L50.6149 67.4045ZM52.8834 70.0694V61.8211C52.8834 59.7123 51.7253 58.3213 48.9465 58.3213C47.3214 58.3213 45.8989 58.7397 44.7418 59.2717L45.0754 60.7324C45.9866 60.3838 47.1668 60.0604 48.3233 60.0604C49.9241 60.0604 50.6149 60.7324 50.6149 62.1235V63.1658H49.8139C45.9197 63.1658 44.1636 64.7391 44.1636 67.1051C44.1636 69.1436 45.3201 70.302 47.4992 70.302C48.9004 70.302 49.9455 69.6996 50.9254 68.8178L51.1043 70.0699L52.8834 70.0694ZM20.9936 72.0299C20.3484 73.0137 19.3033 73.7924 18.1603 74.2313L17.0415 72.8573C17.9117 72.392 18.657 71.6414 19.0041 70.9418C19.3033 70.319 19.4276 69.518 19.4276 67.6014V54.4283H21.8374V67.4203C21.8374 69.9838 21.6416 71.0203 20.9936 72.0299Z" fill="#EA2D2E"/>
</svg>
