<svg width="173" height="36" viewBox="0 0 173 36" fill="none" xmlns="http://www.w3.org/2000/svg">
<g clip-path="url(#clip0_29_11)">
<path d="M35.5096 35.145H0V1.3786H35.5096L17.7548 18.2552L35.5096 35.145Z" fill="url(#paint0_linear_29_11)"/>
<path d="M90.9412 9.84729C93.3923 9.84729 95.7298 10.4828 97.7335 11.5438C99.7372 12.5981 101.3 14.1863 102.401 16.0991C103.517 18.1131 104.185 20.3368 104.185 22.77C104.185 25.2032 103.63 27.4265 102.515 29.4406C101.4 31.3467 99.8436 32.9349 97.8399 33.9959C95.8363 35.1653 93.4991 35.6924 90.9412 35.6924C88.3834 35.6924 86.0462 35.0569 84.0425 33.9959C81.9253 32.9349 80.3696 31.3467 79.2539 29.4406C78.1386 27.5345 77.5844 25.2029 77.5844 22.77C77.5844 20.3368 78.1386 18.1131 79.2536 16.0991C80.3693 14.193 82.0388 12.7131 84.0425 11.5438C86.0462 10.3744 88.3834 9.84729 90.9412 9.84729ZM78.4795 1.27061L62.3374 17.6805L78.6998 35.145H71.4669L55.9929 18.8364V35.145H50.3163V1.37893H55.9929V16.9438L71.3534 1.27093L78.4795 1.27061ZM90.8419 14.6999C89.2859 14.6999 87.9502 15.0178 86.8345 15.7613C85.7195 16.3964 84.8312 17.3494 84.1631 18.62C83.4955 19.7894 83.1616 21.2696 83.1616 22.8578C83.1616 24.4459 83.3816 25.8245 84.0496 27.0955C84.7176 28.2578 85.6056 29.2108 86.721 29.9543C87.9431 30.6977 89.2856 31.0153 90.7284 31.0153C92.1705 31.0153 93.5058 30.6977 94.6215 29.9546C95.7369 29.3191 96.6252 28.3661 97.2929 27.0955C97.9609 25.8249 98.2947 24.4459 98.2947 22.8578C98.2947 21.2696 98.0744 19.891 97.4068 18.62C96.7388 17.4574 95.8508 16.5047 94.7351 15.7613C93.6268 15.0178 92.2911 14.6999 90.8419 14.6999ZM115.659 4.23739H110.202V8.47543C110.202 9.11057 110.089 9.63771 109.648 9.95561C109.314 10.2732 108.76 10.4828 108.092 10.4828H105.421V14.9297H110.096V28.2713C110.096 29.6502 110.43 30.9208 110.984 31.9751C111.535 33.0298 112.433 33.8842 113.542 34.4083C114.657 35.0434 115.879 35.253 117.435 35.253H121.662V30.5968H118.544C117.762 30.5968 117.094 30.3872 116.54 29.7518C116.035 29.1513 115.759 28.4054 115.758 27.6364V14.9304H121.769V10.4824H115.758V4.23707L115.659 4.23739ZM126.011 0H131.574V35.145H126.011V0ZM137.918 0.108H143.595V5.61632H137.918L137.918 0.108ZM137.918 10.4828H143.481V35.2463H137.918L137.918 10.4828ZM171.872 14.5038C171.09 13.024 169.982 11.8546 168.533 11.1179C167.083 10.2732 165.414 9.84729 163.524 9.84729C161.52 9.84729 159.737 10.3744 158.181 11.2262C156.959 11.9697 155.957 13.024 155.176 14.193V10.3812H149.833V35.145H155.396V21.2696C155.396 19.8906 155.616 18.728 156.177 17.667C156.732 16.606 157.513 15.8693 158.401 15.2338C159.403 14.7066 160.518 14.3891 161.854 14.3891C163.076 14.3891 163.971 14.5986 164.86 15.1325C165.748 15.6664 166.309 16.2951 166.749 17.1466C167.197 17.9916 167.417 19.0527 167.417 20.215V35.0367H172.98V19.5798C173.101 17.6805 172.66 15.9908 171.872 14.5038Z" fill="white"/>
</g>
<defs>
<linearGradient id="paint0_linear_29_11" x1="3550.64" y1="2.35767" x2="178.848" y2="3546.8" gradientUnits="userSpaceOnUse">
<stop offset="0.00344" stop-color="#E44857"/>
<stop offset="0.4689" stop-color="#C711E1"/>
<stop offset="1" stop-color="#7F52FF"/>
</linearGradient>
<clipPath id="clip0_29_11">
<rect width="173" height="36" fill="white"/>
</clipPath>
</defs>
</svg>
