<svg width="145" height="48" viewBox="0 0 145 48" fill="none" xmlns="http://www.w3.org/2000/svg">
<g clip-path="url(#clip0_29_37)">
<path d="M11.24 4.91025C9.76739 2.71647 8.49892 0.48856 8.24007 0.0256268C8.23391 0.0175273 8.22651 0.0110803 8.2183 0.00667566C8.2101 0.00227097 8.20127 0 8.19235 0C8.18343 0 8.1746 0.00227097 8.1664 0.00667566C8.1582 0.0110803 8.15079 0.0175273 8.14463 0.0256268C7.8855 0.48856 6.61732 2.71647 5.14466 4.91025C-7.49611 25.1506 7.13558 38.8096 7.13558 38.8096L7.25821 38.9127C7.36724 41.0205 7.63996 44.0541 7.63996 44.0541H8.73086C8.73086 44.0541 9.00359 41.0375 9.11262 38.9127L9.23553 38.7926C9.24912 38.8096 23.8805 25.1506 11.24 4.91025ZM8.18541 38.5014C8.18541 38.5014 7.53093 37.7984 7.35365 37.439V37.4045L8.14463 15.3647C8.14463 15.296 8.22648 15.296 8.22648 15.3647L9.01718 37.4045V37.439C8.8399 37.7984 8.18541 38.5014 8.18541 38.5014Z" fill="#01EC64"/>
<path d="M35.5675 34.0039L29.4701 15.3077L29.4568 15.2562H24.7131V16.5127H25.4784C25.7109 16.5127 25.9295 16.6336 26.0938 16.8398C26.2577 17.0464 26.3399 17.3219 26.3399 17.6149L26.2031 36.4309C26.2031 37.0165 25.8205 37.4983 25.3554 37.5157L24.5764 37.5328V38.7722H29.1971V37.5328L28.7185 37.5157C28.2537 37.4983 27.8709 37.0165 27.8709 36.4313V18.6986L34.5148 38.7719C34.6105 39.0645 34.8292 39.254 35.0755 39.254C35.3214 39.254 35.54 39.0645 35.6357 38.7719L42.1296 19.1463L42.2253 36.4309C42.2253 37.0332 41.8424 37.5154 41.3638 37.5324H40.8716V38.7719H46.2853V37.5324H45.547C45.0825 37.5324 44.6994 37.0332 44.686 36.448L44.6447 17.6313C44.6445 17.3455 44.7328 17.0707 44.891 16.8652C45.0492 16.6596 45.2648 16.5394 45.4923 16.5298L46.2853 16.5123V15.2558H41.6645L35.5675 34.0039ZM78.0799 37.2053C77.9293 37.0158 77.8469 36.7573 77.8469 36.4466V27.2035C77.8469 25.4446 77.4359 24.0647 76.6135 23.0819C75.8047 22.0988 74.6809 21.5989 73.283 21.5989C71.3227 21.5989 69.7742 22.5991 68.6912 24.565C68.6776 24.5994 68.6365 24.6169 68.5955 24.6169C68.5541 24.6169 68.5269 24.582 68.5269 24.5305L68.0197 22.0643H67.1698L64.9906 23.6338V24.496H65.5524C65.813 24.496 66.0322 24.582 66.1831 24.7548C66.3338 24.9273 66.4159 25.1858 66.4159 25.5477V36.4295C66.4159 36.7399 66.3338 36.9987 66.1831 37.1886C66.0322 37.3781 65.8266 37.4816 65.5799 37.4816H65.0316V38.7402H70.048V37.4816H69.5C69.2531 37.4816 69.0475 37.3781 68.8968 37.1886C68.7461 36.9987 68.6637 36.7399 68.6637 36.4295V29.221C68.6637 28.3072 68.8283 27.393 69.1299 26.496C69.4451 25.6167 69.9109 24.875 70.5278 24.3058C71.1446 23.7369 71.8849 23.461 72.7345 23.461C73.694 23.461 74.4204 23.8403 74.8727 24.5991C75.3249 25.3578 75.558 26.341 75.558 27.5136V36.4121C75.558 36.7225 75.4759 36.981 75.3249 37.1708C75.1743 37.3607 74.9687 37.4638 74.7217 37.4638H74.1737V38.7228H79.1901V37.4642H78.6421C78.4365 37.4986 78.2445 37.3952 78.0799 37.2053ZM123.912 16.6638C122.525 15.7369 120.975 15.2558 119.303 15.2558H112.778V16.5091H113.417C113.661 16.5091 113.879 16.6293 114.096 16.9038C114.3 17.1616 114.409 17.4535 114.409 17.7625V36.2336C114.409 36.5429 114.3 36.8345 114.096 37.0922C113.892 37.3497 113.661 37.4869 113.417 37.4869H112.778V38.7402H119.303C120.975 38.7402 122.525 38.2595 123.912 37.3322C125.298 36.4053 126.426 35.0318 127.242 33.281C128.058 31.5303 128.479 29.4186 128.479 27.0151C128.479 24.6119 128.058 22.5173 127.242 20.7495C126.413 18.9642 125.298 17.6078 123.912 16.6638ZM125.856 26.981C125.856 29.1783 125.543 31.0322 124.931 32.5258C124.32 34.0192 123.504 35.1349 122.498 35.8563C121.492 36.577 120.377 36.9376 119.181 36.9376H117.862C117.618 36.9376 117.4 36.8174 117.183 36.5429C116.979 36.2851 116.87 35.9936 116.87 35.6846V18.2602C116.87 17.9509 116.965 17.6768 117.183 17.4019C117.387 17.1445 117.618 17.0073 117.862 17.0073H119.181C120.377 17.0073 121.492 17.3674 122.498 18.0885C123.504 18.8096 124.32 19.9253 124.931 21.419C125.543 22.9294 125.856 24.8007 125.856 26.981ZM143.904 28.2343C143.3 27.3586 142.136 26.6204 140.766 26.2254C142.657 25.041 143.629 23.376 143.629 21.2298C143.629 20.0629 143.384 19.0154 142.89 18.123C142.397 17.2306 141.697 16.5091 140.807 16.0114C139.916 15.5136 138.874 15.2562 137.696 15.2562H130.309V16.5091H130.898C131.145 16.5091 131.365 16.6293 131.584 16.9038C131.789 17.1616 131.899 17.4535 131.899 17.7625V36.2336C131.899 36.5429 131.789 36.8345 131.584 37.0922C131.378 37.3497 131.145 37.4869 130.898 37.4869H130.254V38.7402H138.272C139.491 38.7402 140.628 38.4828 141.656 37.9676C142.685 37.4528 143.507 36.6972 144.096 35.7017C144.699 34.7061 145 33.4869 145 32.0793C144.987 30.5689 144.63 29.281 143.904 28.2343ZM134.708 36.56C134.503 36.3026 134.393 36.0106 134.393 35.7017V27.4098H138.203C139.545 27.4098 140.573 27.8389 141.286 28.6969C141.999 29.5555 142.355 30.6713 142.355 32.0448C142.355 32.8686 142.19 33.6757 141.89 34.4138C141.574 35.169 141.107 35.7699 140.478 36.2336C139.86 36.6969 139.093 36.9376 138.203 36.9376H135.393C135.147 36.9376 134.927 36.817 134.708 36.5596M134.406 25.6416V18.2773C134.406 17.9683 134.502 17.6938 134.721 17.419C134.927 17.1616 135.16 17.0243 135.407 17.0243H137.216C138.517 17.0243 139.477 17.4364 140.08 18.2261C140.683 19.0329 140.984 20.0629 140.984 21.333C140.984 22.6378 140.696 23.685 140.135 24.4746C139.572 25.2469 138.723 25.6419 137.6 25.6419L134.406 25.6416ZM58.9827 22.6933C57.9354 21.9751 56.7658 21.5982 55.501 21.5982C54.2696 21.5982 53.1156 21.9392 52.1014 22.6364L52.0196 22.6933C50.9723 23.4119 50.1428 24.4554 49.5308 25.7728C48.9191 27.0901 48.6061 28.63 48.6061 30.3406C48.6061 32.0515 48.9188 33.5914 49.5308 34.9088C50.1428 36.2261 50.9723 37.2697 52.0196 37.9879C53.0669 38.7065 54.2365 39.083 55.501 39.083C56.7327 39.083 57.8867 38.7424 58.9006 38.0455L58.9827 37.9882C60.0297 37.2697 60.8595 36.2261 61.4715 34.9088C62.0832 33.5914 62.3961 32.0515 62.3961 30.3406C62.3961 28.63 62.0832 27.0901 61.4715 25.7728C60.8595 24.4554 60.03 23.4115 58.9827 22.6933ZM59.9889 30.341C59.9889 32.4455 59.5811 34.1561 58.7649 35.3881C57.9626 36.6197 56.8612 37.2526 55.501 37.2526C54.1654 37.2526 53.0791 36.6421 52.2804 35.4535L52.2374 35.3881C51.4212 34.1561 51.0131 32.4455 51.0131 30.341C51.0131 28.2752 51.4067 26.5884 52.1932 25.3618L52.2374 25.2942C53.0394 24.0626 54.1413 23.4293 55.501 23.4293C56.8612 23.4293 57.9626 24.0622 58.7649 25.2942C59.5811 26.5262 59.9889 28.2368 59.9889 30.341ZM107.179 22.6937C106.132 21.9754 104.963 21.5986 103.698 21.5986C102.467 21.5986 101.312 21.9395 100.298 22.6368L100.216 22.6937C99.1692 23.4122 98.3397 24.4558 97.7277 25.7731C97.1157 27.0905 96.8028 28.6304 96.8028 30.341C96.8028 32.0519 97.1157 33.5918 97.7277 34.9091C98.3394 36.2265 99.1692 37.27 100.217 37.9882C101.264 38.7068 102.433 39.0834 103.698 39.0834C104.929 39.0834 106.084 38.7427 107.098 38.0458L107.18 37.9886C108.227 37.27 109.056 36.2265 109.668 34.9091C110.28 33.5918 110.593 32.0519 110.593 30.341C110.593 28.6304 110.28 27.0905 109.668 25.7731C109.056 24.4558 108.213 23.4119 107.179 22.6937ZM108.186 30.3413C108.186 32.4458 107.778 34.1564 106.962 35.3884C106.159 36.6201 105.058 37.253 103.698 37.253C102.362 37.253 101.276 36.6425 100.477 35.4538L100.434 35.3884C99.6181 34.1564 99.21 32.4458 99.21 30.3413C99.21 28.2585 99.6034 26.5881 100.39 25.3621L100.434 25.2946C101.236 24.0629 102.338 23.4297 103.698 23.4297C105.058 23.4297 106.159 24.0626 106.962 25.2946C107.764 26.5266 108.186 28.2371 108.186 30.3413ZM87.7425 21.5993C86.6465 21.5993 85.6468 21.8912 84.7429 22.4757C83.8389 23.0599 83.1266 23.8506 82.62 24.8647C82.116 25.8487 81.8496 26.9947 81.8531 28.1646C81.8531 29.2302 82.0448 30.2098 82.4421 31.0866C82.8253 31.9285 83.3458 32.6332 84.0034 33.2174L82.0448 36.5518C81.7984 36.9642 81.7709 37.5143 81.9488 37.9612C82.1405 38.4252 82.4968 38.7001 82.9077 38.7001H83.4693C82.9442 39.1449 82.5197 39.6686 82.2201 40.2858L82.1816 40.3673C81.8256 41.1061 81.6474 41.8798 81.6474 42.6702C81.6474 44.1219 82.1496 45.3251 83.1405 46.2304L83.1952 46.2794C84.209 47.1904 85.6333 47.6544 87.4273 47.6544C88.6737 47.6544 89.8654 47.3966 90.9476 46.8981C92.0118 46.4142 92.8821 45.7027 93.5338 44.7804L93.5904 44.6986C94.2616 43.7358 94.6043 42.5671 94.6043 41.2266C94.6043 39.8172 94.1933 38.8202 93.2347 37.8581C92.4128 37.0503 91.1254 36.6208 89.5228 36.6208H84.0445C84.0365 36.6199 84.0288 36.6159 84.0227 36.6094L84.017 36.6034L84.0145 36.5962C84.0116 36.5852 84.0071 36.5642 84.017 36.5518L85.4415 34.1458C85.7789 34.3431 86.1326 34.4928 86.4962 34.5923C86.8247 34.6784 87.1946 34.7129 87.6055 34.7129C88.7559 34.7129 89.7969 34.4206 90.7009 33.8364C91.6049 33.2519 92.3307 32.4615 92.8512 31.4471C93.3715 30.4505 93.6318 29.3333 93.6318 28.1475C93.6318 26.8757 93.139 24.5554 91.7966 23.3696C91.7966 23.3589 91.8014 23.355 91.8054 23.3532L91.8102 23.3522L94.7549 23.7646V22.0633H90.0433C89.3038 21.771 88.5366 21.5993 87.7425 21.5993ZM89.386 32.3584C88.8654 32.7018 88.3041 32.891 87.7425 32.891C86.825 32.891 86.0167 32.4786 85.3319 31.6707C84.6471 30.8629 84.3047 29.6771 84.3047 28.1646C84.3047 26.6521 84.6471 25.4659 85.3319 24.6585C86.0167 23.8506 86.8247 23.4382 87.7425 23.4382C88.2937 23.4382 88.8198 23.5961 89.3208 23.9267L89.386 23.9708C89.9065 24.3146 90.331 24.8476 90.6734 25.5523C91.0019 26.257 91.1803 27.1335 91.1803 28.1646C91.1803 29.2131 91.0158 30.0896 90.6734 30.7769C90.3449 31.4816 89.9065 32.0146 89.386 32.3584ZM85.6743 38.6826H89.386C90.4132 38.6826 91.0708 38.9404 91.5089 39.4905C91.9473 40.0405 92.1662 40.7794 92.1662 41.6387C92.1662 42.8935 91.7691 43.925 90.9747 44.6979C90.1804 45.4716 89.1121 45.8666 87.7972 45.8666C86.6466 45.8666 85.6879 45.5402 84.9892 44.9216C84.2909 44.3029 83.9349 43.3571 83.9349 42.1543C83.9349 41.398 84.0991 40.6933 84.4279 40.0746C84.7565 39.456 85.1538 39.009 85.674 38.6826" fill="white"/>
</g>
<defs>
<clipPath id="clip0_29_37">
<rect width="145" height="48" fill="white"/>
</clipPath>
</defs>
</svg>
