<svg width="48" height="48" viewBox="0 0 48 48" fill="none" xmlns="http://www.w3.org/2000/svg">
<g clip-path="url(#clip0_29_30)">
<path d="M28.2632 0C27.9162 0 27.5939 0.0747294 27.2963 0.174306C27.9285 0.597271 28.2756 1.15727 28.4491 1.792C28.4616 1.87915 28.4864 1.94146 28.4987 2.02842C28.5111 2.10315 28.5235 2.17788 28.5235 2.25242C28.5732 3.34758 28.2385 3.48442 28.0028 4.13158C27.6434 4.96546 27.7426 5.86146 28.1764 6.58315C28.2135 6.67031 28.2632 6.76988 28.3251 6.85704C27.8541 3.70842 30.4697 3.23558 30.9531 2.25242C30.9902 1.39388 30.2837 0.821271 29.7259 0.423153C29.1929 0.0993882 28.7095 0 28.2632 0ZM32.2051 0.709271C32.1556 0.995576 32.1927 0.920847 32.1803 1.07031C32.1679 1.16988 32.1679 1.29431 32.1556 1.39388C32.1308 1.49327 32.1061 1.59285 32.0687 1.69242C32.044 1.79219 32.0069 1.89158 31.9697 1.99115C31.9201 2.09073 31.8829 2.17788 31.8332 2.27727C31.7961 2.32715 31.7714 2.37704 31.734 2.42673L31.6598 2.53873C31.5979 2.62588 31.5359 2.71304 31.4738 2.78758C31.3994 2.86231 31.3375 2.94946 31.2507 3.01158V3.024C31.1762 3.08631 31.102 3.16104 31.0152 3.22315C30.7549 3.42231 30.4574 3.57158 30.1846 3.75831C30.0979 3.82042 30.0111 3.87031 29.9367 3.94504C29.8499 4.00715 29.7754 4.06927 29.7012 4.14419C29.6144 4.21873 29.5525 4.29346 29.4781 4.38061C29.4162 4.45515 29.3417 4.54249 29.2921 4.62946C29.2302 4.71661 29.1683 4.80358 29.1186 4.89073C29.0689 4.99049 29.0318 5.07746 28.9821 5.17685C28.945 5.27661 28.9079 5.36376 28.8831 5.46315C28.8458 5.57515 28.821 5.67473 28.7963 5.77431C28.7839 5.82419 28.7839 5.88631 28.7716 5.93619C28.759 5.98588 28.759 6.03576 28.7468 6.08546C28.7468 6.18504 28.7342 6.29704 28.7342 6.39661C28.7342 6.47134 28.7342 6.54588 28.7468 6.62061C28.7468 6.72019 28.7592 6.81976 28.7839 6.93176C28.7963 7.03134 28.8211 7.13073 28.8458 7.23031C28.8831 7.33007 28.9079 7.42946 28.9452 7.52904C28.9697 7.59115 29.0071 7.65346 29.0318 7.70334L26.1809 6.59577C25.7046 6.45963 25.2252 6.33511 24.7429 6.22231L23.962 6.03576C23.2182 5.88631 22.462 5.77431 21.706 5.69976C21.6812 5.69976 21.6687 5.68715 21.6441 5.68715C20.9068 5.6126 20.1661 5.57522 19.4251 5.57515C18.8796 5.57515 18.3342 5.6 17.8013 5.63727C17.0449 5.68715 16.2889 5.78673 15.5326 5.91115C15.3467 5.93619 15.1607 5.97346 14.9749 6.01092C14.5906 6.08546 14.2187 6.17261 13.8593 6.25977L13.3013 6.40904C13.1155 6.48376 12.9419 6.57092 12.7684 6.64546L12.3593 6.83219C12.3346 6.84461 12.3096 6.84461 12.2974 6.85704C12.1733 6.91915 12.0617 6.96904 11.9502 7.03115C11.9203 7.04134 11.8913 7.05387 11.8634 7.06861C11.7271 7.13073 11.5907 7.20546 11.4792 7.26776C11.3924 7.30504 11.3056 7.35473 11.2313 7.392C11.1953 7.41489 11.1581 7.43569 11.1197 7.45431C11.0082 7.51642 10.8966 7.57873 10.7972 7.64104C10.6947 7.69761 10.5954 7.75995 10.4999 7.82776C10.4131 7.88988 10.3264 7.93976 10.252 8.00188C10.2396 8.01431 10.2272 8.01431 10.2147 8.02673C10.1404 8.07661 10.0536 8.13873 9.97918 8.20104L9.95443 8.22588L9.76861 8.37515C9.74368 8.38776 9.71893 8.41261 9.69418 8.42504C9.6323 8.47473 9.57024 8.53704 9.50818 8.58692C9.4958 8.61158 9.47105 8.62419 9.45868 8.63661C9.38424 8.71134 9.3098 8.77346 9.23555 8.84819C9.22299 8.84819 9.22299 8.86061 9.2108 8.87304C9.13637 8.93515 9.06193 9.00988 8.98768 9.08461C8.97511 9.09704 8.97511 9.10946 8.96274 9.10946C8.90086 9.17158 8.83899 9.23388 8.77693 9.30861C8.75218 9.33346 8.71505 9.35831 8.69011 9.38315C8.62824 9.45788 8.5538 9.53261 8.47936 9.60715C8.46699 9.63219 8.44224 9.64461 8.42968 9.66946C8.33068 9.76904 8.24386 9.86861 8.14468 9.96819L8.10755 10.0055C7.90918 10.217 7.69843 10.4286 7.4753 10.6153C7.25549 10.8123 7.0236 10.9951 6.78099 11.1629C6.54063 11.3321 6.29248 11.4899 6.03737 11.6358C5.78437 11.7751 5.52363 11.8997 5.25643 12.009C4.99273 12.1215 4.7238 12.2212 4.45055 12.3078C3.93005 12.4198 3.3968 12.6313 2.93836 12.6686C2.83899 12.6686 2.72761 12.6935 2.62843 12.7059C2.5248 12.7295 2.42148 12.7544 2.31849 12.7806L2.02093 12.8926C1.92174 12.9299 1.82274 12.9798 1.72355 13.0295C1.63674 13.0916 1.53755 13.1415 1.45074 13.2038C1.36393 13.2659 1.2773 13.3406 1.20286 13.4153C1.11605 13.4775 1.02924 13.5646 0.95499 13.6393C0.880552 13.7265 0.806115 13.8012 0.74424 13.8882C0.682365 13.9878 0.607927 14.0749 0.55824 14.1743C0.496365 14.2616 0.434302 14.361 0.384615 14.4606C0.335115 14.5726 0.285615 14.6722 0.248302 14.7844C0.209202 14.8915 0.172008 14.9993 0.13674 15.1078C0.11199 15.2073 0.0872397 15.3069 0.0748647 15.4065C0.0748647 15.4189 0.0623022 15.4313 0.0623022 15.4438C0.0375522 15.5558 0.0375522 15.7052 0.0251772 15.7798C0.0128022 15.8669 0.000427246 15.9416 0.000427246 16.0286C0.000427246 16.0785 0.000427246 16.1406 0.0128022 16.1905C0.0251772 16.2776 0.0375522 16.3524 0.0624897 16.4269C0.0872397 16.5016 0.11199 16.5762 0.149302 16.6509V16.6633C0.186427 16.7381 0.235927 16.8128 0.285615 16.8873C0.335115 16.9621 0.384802 17.0368 0.446865 17.1113C0.50874 17.1735 0.58299 17.2484 0.657427 17.3105C0.731865 17.3852 0.806302 17.4473 0.892927 17.5096C1.19049 17.7709 1.26493 17.8581 1.64911 18.0572C1.71099 18.0945 1.77305 18.1193 1.84749 18.1568C1.85986 18.1568 1.87224 18.1692 1.88461 18.1692C1.88461 18.1941 1.88461 18.2065 1.89718 18.2313C1.90955 18.3311 1.9343 18.4305 1.95905 18.5301C1.9838 18.6421 2.02093 18.7416 2.05824 18.8288C2.09536 18.9035 2.12011 18.9781 2.15743 19.0528C2.1698 19.0776 2.18218 19.1027 2.19455 19.1149C2.24424 19.2147 2.29393 19.3016 2.34343 19.3888L2.52924 19.6501C2.59111 19.7248 2.66555 19.812 2.73999 19.8867C2.81443 19.9612 2.88886 20.0235 2.97549 20.0981C2.97549 20.0981 2.98805 20.1107 3.00024 20.1107C3.07468 20.1728 3.14911 20.2349 3.22336 20.2848C3.31018 20.3469 3.39699 20.3968 3.49618 20.4467C3.58299 20.4964 3.68218 20.5463 3.78118 20.5835C3.85562 20.6208 3.94243 20.6456 4.02924 20.6707C4.04162 20.6831 4.05399 20.6831 4.07874 20.6955C4.12843 20.708 4.1903 20.7204 4.23999 20.7328C4.20268 21.4048 4.1903 22.0395 4.28949 22.2635C4.40105 22.5124 4.94649 21.7534 5.49193 20.8823C5.41768 21.7408 5.36818 22.7488 5.49193 23.0475C5.62824 23.3587 6.37205 22.388 7.01668 21.3176C15.8056 19.2768 23.8257 25.3747 24.6687 33.9864C24.5074 32.6424 22.8589 31.8957 22.1027 32.0824C21.7307 33.0033 21.0987 34.1856 20.0822 34.9197C20.1689 34.0984 20.1317 33.2521 19.9581 32.4309C19.6855 33.5757 19.1524 34.646 18.421 35.5669C17.2435 35.654 16.066 35.0816 15.4459 34.2229C15.3964 34.1856 15.3841 34.1109 15.3469 34.061C15.3096 33.974 15.2725 33.8869 15.2476 33.7997C15.2115 33.7163 15.1865 33.6284 15.1733 33.5384C15.1609 33.4513 15.1609 33.3641 15.1609 33.2646V33.078C15.1733 32.9909 15.1981 32.9037 15.2228 32.8166C15.2476 32.7296 15.2725 32.6424 15.3096 32.5553C15.3593 32.4681 15.3964 32.381 15.4583 32.294C15.6691 31.6966 15.6691 31.2113 15.2849 30.925C15.2104 30.8762 15.1316 30.8346 15.0494 30.8008C14.9997 30.7881 14.9378 30.7631 14.8881 30.7509C14.851 30.7383 14.8262 30.7258 14.7889 30.7134C14.7023 30.6886 14.6155 30.6637 14.5287 30.6513C14.4441 30.6267 14.3565 30.6141 14.2684 30.6138C14.1816 30.6014 14.0824 30.589 13.9956 30.589C13.9337 30.589 13.8719 30.6014 13.8096 30.6014C13.7106 30.6014 13.6238 30.614 13.537 30.6389C13.4502 30.6513 13.3634 30.6637 13.2767 30.6886C13.1899 30.7134 13.1031 30.7384 13.0163 30.7757C12.9297 30.813 12.8551 30.8504 12.7684 30.8877C12.694 30.925 12.6197 30.9749 12.5329 31.0121C9.64468 32.9039 11.3676 37.334 13.3386 38.6159C12.5948 38.7528 11.8386 38.9146 11.6281 39.0763L11.6033 39.1012C12.1362 39.4249 12.694 39.6986 13.2767 39.9351C14.0701 40.1963 14.9131 40.4328 15.2849 40.5323V40.5448C16.3119 40.7562 17.3621 40.8315 18.4086 40.7688C23.9001 40.3829 28.3999 36.1892 29.218 30.6637C29.2427 30.7757 29.2677 30.8753 29.2924 30.9873C29.3296 31.2113 29.3792 31.4477 29.404 31.6841V31.6968C29.4287 31.8088 29.4411 31.9208 29.4537 32.0203V32.07C29.4661 32.182 29.4784 32.294 29.4784 32.3936C29.4908 32.5304 29.5032 32.6673 29.5032 32.8043V33.0033C29.5032 33.0656 29.5155 33.1403 29.5155 33.2024C29.5155 33.2772 29.5032 33.3519 29.5032 33.4264V33.6008C29.5032 33.6879 29.4908 33.7626 29.4908 33.8496C29.4908 33.8995 29.4908 33.9492 29.4782 34.0115C29.4782 34.0984 29.4659 34.1856 29.4659 34.2852C29.4535 34.3224 29.4535 34.3599 29.4535 34.3972C29.4411 34.4968 29.4287 34.5839 29.4162 34.6833C29.4162 34.7208 29.4162 34.758 29.4038 34.7955C29.3914 34.9197 29.3667 35.0319 29.3543 35.1563V35.1812C29.3295 35.2932 29.3046 35.4178 29.2799 35.5298V35.5671L29.2054 35.9031C29.2054 35.9155 29.1931 35.9403 29.1931 35.9528C29.1683 36.0648 29.1435 36.1768 29.1062 36.2889V36.3262C29.0691 36.4506 29.032 36.5626 29.0072 36.6746C28.9947 36.6871 28.9947 36.6995 28.9947 36.6995L28.8831 37.0728C28.8336 37.1974 28.7965 37.3094 28.7468 37.4338C28.6973 37.558 28.66 37.6826 28.6105 37.7946C28.5608 37.9191 28.5111 38.0311 28.4618 38.1555H28.4492C28.3997 38.2675 28.3501 38.3919 28.288 38.5039C28.2779 38.5339 28.2655 38.563 28.2509 38.5911C28.2385 38.6037 28.2385 38.6159 28.2261 38.6285C27.4204 40.2586 26.2304 41.6898 24.7429 42.8098C24.6436 42.8719 24.5445 42.9468 24.4454 43.0214C24.4206 43.0462 24.3835 43.0588 24.3586 43.0835C24.2717 43.1458 24.1851 43.2081 24.0859 43.2702L24.1231 43.3449H24.1354L24.6561 43.2702H24.6685C24.991 43.2205 25.3131 43.1582 25.6354 43.0961C25.7222 43.0837 25.8214 43.0588 25.9081 43.034C25.9701 43.0214 26.0196 43.0089 26.0817 42.9965C26.1685 42.9841 26.2553 42.9592 26.3419 42.9466C26.4164 42.9218 26.4908 42.9094 26.5651 42.8845C27.8048 42.5858 29.0072 42.1751 30.16 41.6898C28.189 44.3902 25.5486 46.5681 22.462 47.9992C23.8876 47.8997 25.3131 47.6632 26.6892 47.2651C31.6847 45.7841 35.887 42.4117 38.4034 37.8694C37.8926 40.7507 36.7539 43.4831 35.0687 45.8712C36.2701 45.0757 37.3801 44.1491 38.3785 43.1085C41.1554 40.1965 42.9775 36.5003 43.5974 32.5304C44.0202 34.5 44.1414 36.5227 43.9568 38.5289C52.9067 25.997 44.7006 13.0048 41.2669 9.58249C41.2544 9.55765 41.2422 9.54522 41.2422 9.52038C41.2296 9.5328 41.2296 9.5328 41.2296 9.54522C41.2296 9.53261 41.2296 9.53261 41.2172 9.52038C41.2172 9.66965 41.2049 9.81892 41.1925 9.96838C41.1554 10.2545 41.1181 10.5284 41.0686 10.8023C41.0067 11.076 40.9322 11.3496 40.8578 11.6235C40.7695 11.8929 40.6703 12.1586 40.5602 12.4198C40.4463 12.6777 40.3223 12.931 40.1884 13.1791C40.0521 13.4155 39.9034 13.6644 39.7422 13.8884C39.5828 14.1198 39.4132 14.344 39.234 14.5604C39.0479 14.7844 38.8497 14.9835 38.6513 15.1827C38.5346 15.2899 38.4147 15.3936 38.2919 15.4936C38.1925 15.5808 38.1059 15.6555 38.0067 15.7427C37.7836 15.9168 37.5604 16.0787 37.3125 16.228C37.077 16.3772 36.829 16.5267 36.5813 16.6511C36.3207 16.7755 36.0604 16.8875 35.8002 16.9995C35.536 17.0997 35.2671 17.1868 34.9945 17.2608C34.7204 17.3349 34.4433 17.3972 34.1639 17.4475C33.8789 17.4974 33.5939 17.5223 33.3211 17.5471C33.1227 17.5595 32.9243 17.572 32.7259 17.572C32.4409 17.572 32.1557 17.5471 31.8831 17.5223C31.5979 17.4972 31.3127 17.46 31.0401 17.3976C30.7551 17.348 30.4823 17.2734 30.2095 17.1863H30.1971C30.4699 17.1612 30.7427 17.1364 31.0154 17.0865C31.295 17.0375 31.5722 16.9753 31.846 16.9C32.1185 16.826 32.3874 16.7388 32.6515 16.6387C32.9243 16.5389 33.1846 16.4147 33.4326 16.2901C33.6929 16.1658 33.9284 16.0288 34.1762 15.8795C34.4117 15.7176 34.6474 15.5558 34.8706 15.3816C35.0926 15.2083 35.3037 15.0213 35.5026 14.8216C35.7134 14.6349 35.8994 14.4235 36.0854 14.2118C36.2665 13.9939 36.4401 13.7697 36.6059 13.5398C36.6306 13.5025 36.6556 13.4528 36.6803 13.4155C36.8042 13.2164 36.9282 13.0172 37.0397 12.8181C37.1761 12.5713 37.3003 12.318 37.4117 12.0589C37.5237 11.7985 37.6229 11.5328 37.7091 11.2627C37.7959 11.001 37.858 10.7273 37.9199 10.4536C37.9696 10.1675 38.0192 9.89365 38.0438 9.61976C38.0686 9.33365 38.0935 9.04753 38.0935 8.77365C38.0935 8.57449 38.0811 8.37534 38.0687 8.17619C38.044 7.89007 38.0069 7.61619 37.9694 7.34231C37.9206 7.06162 37.8587 6.78341 37.7837 6.50861C37.6967 6.24734 37.6101 5.97346 37.5109 5.71219C37.4116 5.45092 37.2878 5.18946 37.1639 4.94061C37.0274 4.69176 36.891 4.44273 36.7424 4.20649C36.5841 3.97323 36.4187 3.74492 36.2464 3.52188C36.0598 3.30722 35.8697 3.09562 35.6762 2.88715C35.5718 2.78041 35.4643 2.67671 35.3539 2.57619C34.7986 2.14317 34.2236 1.73615 33.6308 1.35642C33.5507 1.31007 33.468 1.26858 33.3829 1.23219C32.974 0.970729 32.5898 0.833882 32.2054 0.709459L32.2051 0.709271Z" fill="#E0234E"/>
</g>
<defs>
<clipPath id="clip0_29_30">
<rect width="48" height="48" fill="white"/>
</clipPath>
</defs>
</svg>
