<svg width="48" height="48" viewBox="0 0 48 48" fill="none" xmlns="http://www.w3.org/2000/svg">
<g clip-path="url(#clip0_29_32)">
<path d="M47.814 28.7429C47.5262 27.8977 46.7722 27.3089 45.7972 27.1677C45.3375 27.1011 44.811 27.1295 44.1879 27.254C43.1019 27.4713 42.2962 27.554 41.7082 27.57C43.9277 23.9364 45.7324 19.7927 46.7713 15.8922C48.4513 9.58511 47.5536 6.71184 46.5045 5.4122C43.7282 1.9722 39.6776 0.124199 34.791 0.0676532C32.1842 0.0367441 29.8957 0.535835 28.7019 0.894744C27.5904 0.704562 26.3953 0.598381 25.1413 0.578744C22.7906 0.542381 20.7137 1.03929 18.939 2.06056C17.9565 1.73838 16.3796 1.2842 14.5586 0.99438C10.2757 0.312562 6.82387 0.843835 4.299 2.57347C1.24162 4.66765 -0.175689 8.3062 0.0864356 13.388C0.169686 15.0015 1.10044 19.9106 2.56594 24.5662C3.40819 27.2422 4.30631 29.4644 5.23537 31.1717C6.55294 33.5926 7.96275 35.0182 9.54544 35.5302C10.4325 35.8167 12.0442 36.0175 13.7394 34.6484C13.9543 34.9007 14.241 35.1515 14.6214 35.3844C15.1046 35.6798 15.6954 35.9213 16.2855 36.0644C18.4119 36.5798 20.4037 36.4509 22.1031 35.7284C22.1136 36.0215 22.1216 36.3015 22.1284 36.5433C22.1396 36.9355 22.1509 37.32 22.1657 37.6797C22.2664 40.1113 22.437 42.002 22.9425 43.3249C22.9702 43.3977 23.0076 43.5086 23.0469 43.6262C23.2991 44.3749 23.7208 45.6284 24.7937 46.61C25.9046 47.6269 27.2484 47.9387 28.4792 47.9387C29.0964 47.9387 29.6854 47.8602 30.2019 47.7529C32.0432 47.3702 34.1344 46.7873 35.6471 44.6986C37.0774 42.724 37.7726 39.75 37.8984 35.064C37.9147 34.9315 37.9297 34.8049 37.9442 34.6844L37.9742 34.4367L38.3111 34.4655L38.3979 34.4711C40.2733 34.554 42.5664 34.1684 43.9747 33.534C45.0876 33.0333 48.6536 31.2077 47.814 28.7429Z" fill="black"/>
<path d="M44.6074 29.2222C39.0311 30.3376 38.6477 28.5069 38.6477 28.5069C44.5352 20.0355 46.9965 9.28218 44.8727 6.65036C39.0782 -0.528731 29.0479 2.86654 28.8804 2.95454L28.8266 2.964C27.7249 2.74218 26.4921 2.61018 25.1062 2.58818C22.5832 2.54818 20.6692 3.22963 19.2169 4.29763C19.2169 4.29763 1.32375 -2.85037 2.15606 13.2875C2.33306 16.7205 7.23056 39.2644 13.0719 32.4551C15.207 29.9651 17.2701 27.8598 17.2701 27.8598C18.2946 28.5198 19.5212 28.8565 20.8071 28.7356L20.907 28.6535C20.8759 28.9625 20.8901 29.2649 20.9469 29.6229C19.4421 31.2533 19.8844 31.5395 16.8761 32.14C13.8321 32.7484 15.6202 33.8313 16.7878 34.1145C18.2032 34.4576 21.4777 34.9438 23.6902 31.9404L23.6021 32.2831C24.1916 32.7411 24.6056 35.2618 24.5362 37.5471C24.4669 39.8322 24.4206 41.4011 24.885 42.6265C25.3498 43.852 25.8127 46.6093 29.7675 45.7876C33.0718 45.1009 34.7842 43.3215 35.0226 40.3531C35.1915 38.2429 35.5742 38.5549 35.5982 36.6682L35.9051 35.7751C36.2589 32.9145 35.9614 31.9916 37.9971 32.4209L38.4921 32.4631C39.9902 32.5291 41.9514 32.2293 43.1025 31.7105C45.5809 30.5953 47.0509 28.7329 44.607 29.2222H44.6074Z" fill="#336791"/>
<path d="M20.2643 14.8227C19.7618 14.7549 19.3067 14.8176 19.0764 14.9867C18.9471 15.0818 18.9069 15.192 18.8961 15.2678C18.8672 15.4687 19.0123 15.6909 19.1016 15.8054C19.3539 16.1298 19.7226 16.3527 20.0874 16.4018C20.1403 16.4091 20.193 16.4124 20.2453 16.4124C20.8538 16.4124 21.4071 15.9529 21.4558 15.6138C21.5168 15.1891 20.8809 14.9058 20.2643 14.8227ZM36.9113 14.8362C36.8633 14.5033 36.2524 14.4084 35.6726 14.4865C35.0936 14.5647 34.5323 14.8182 34.5791 15.1518C34.6166 15.4113 35.0998 15.8542 35.6717 15.8542C35.7201 15.8542 35.7688 15.8511 35.8179 15.8444C36.1997 15.7931 36.4798 15.558 36.6129 15.4225C36.8154 15.216 36.9328 14.9858 36.9113 14.8362Z" fill="white"/>
<path d="M46.4629 29.0955C46.2503 28.472 45.5659 28.2715 44.4289 28.4991C41.0529 29.1747 39.8439 28.7067 39.447 28.4233C42.0711 24.5469 44.2298 19.8611 45.3943 15.4893C45.9459 13.4184 46.2506 11.4951 46.2756 9.92746C46.3031 8.20691 46.0009 6.94255 45.3776 6.17018C42.8648 3.05655 39.1766 1.38636 34.7123 1.34055C31.6431 1.30709 29.0499 2.06873 28.5473 2.28291C27.4886 2.02764 26.3346 1.87091 25.0781 1.85091C22.7741 1.81473 20.7825 2.34964 19.1336 3.44C18.4174 3.18146 16.5664 2.56527 14.3027 2.21164C10.3892 1.60073 7.27932 2.06364 5.06007 3.58818C2.412 5.40746 1.1895 8.65945 1.42632 13.2536C1.506 14.7993 2.41425 19.5542 3.8475 24.1078C5.73413 30.1013 7.785 33.4942 9.94275 34.1922C10.1953 34.2738 10.4865 34.3309 10.8077 34.3309C11.5948 34.3309 12.5599 33.9869 13.5639 32.8164C14.7886 31.3917 16.0555 30.0017 17.3629 28.648C18.2111 29.0895 19.143 29.336 20.0961 29.3607C20.0979 29.3849 20.1004 29.4091 20.1026 29.4331C19.9386 29.6228 19.7779 29.8153 19.6208 30.0104C18.9604 30.8233 18.8229 30.9925 16.6973 31.4169C16.0926 31.538 14.4866 31.8589 14.463 32.9505C14.4375 34.1433 16.3614 34.6442 16.5806 34.6973C17.3445 34.8827 18.0804 34.9742 18.7823 34.9742C20.4891 34.9742 21.9911 34.4302 23.1915 33.3776C23.1546 37.6296 23.3374 41.8195 23.8639 43.096C24.2951 44.1411 25.3485 46.6951 28.6759 46.6949C29.1641 46.6949 29.7015 46.6398 30.2927 46.5169C33.7654 45.7951 35.2734 44.3067 35.8568 41.0255C36.1689 39.2718 36.7046 35.0844 36.9566 32.8382C37.4884 32.9991 38.1729 33.0727 38.913 33.0725C40.4565 33.0725 42.2376 32.7545 43.3545 32.2518C44.6093 31.6867 46.8735 30.3002 46.4629 29.0955ZM38.193 13.9173C38.1816 14.5804 38.0874 15.1824 37.9877 15.8107C37.8803 16.4865 37.7693 17.1853 37.7413 18.0335C37.7138 18.8589 37.8201 19.7171 37.9228 20.5471C38.1306 22.2235 38.3438 23.9493 37.5186 25.6522C37.3815 25.4167 37.2594 25.1732 37.1529 24.9233C37.0504 24.6822 36.8276 24.2949 36.5192 23.7589C35.3194 21.6724 32.5097 16.7862 33.948 14.7924C34.3764 14.1989 35.4638 13.5887 38.193 13.9173ZM34.8848 2.68327C38.8849 2.76891 42.0491 4.22 44.2894 6.996C46.0076 9.12527 44.1156 18.8138 38.6381 27.1722C38.583 27.1043 38.5277 27.0366 38.472 26.9691L38.4026 26.8851C39.8181 24.6184 39.5413 22.3756 39.2949 20.3873C39.1937 19.5713 39.0981 18.8005 39.1224 18.0765C39.1476 17.3093 39.2522 16.6511 39.3534 16.0147C39.4778 15.2305 39.6043 14.4191 39.5694 13.4625C39.5955 13.3622 39.606 13.2436 39.5923 13.1029C39.5033 12.1856 38.4233 9.44036 36.222 6.95564C35.0179 5.59655 33.2619 4.07564 30.8644 3.04982C31.8956 2.84255 33.3058 2.64927 34.8848 2.68327ZM12.5014 31.9596C11.3951 33.2495 10.6313 33.0022 10.38 32.9211C8.74313 32.3916 6.84375 29.0367 5.16919 23.7167C3.72019 19.1135 2.87344 14.4845 2.80632 13.1865C2.59482 9.08146 3.621 6.22055 5.85657 4.68309C9.49482 2.18127 15.4764 3.67873 17.88 4.43818C17.8455 4.47127 17.8095 4.50218 17.7754 4.53582C13.8311 8.39836 13.9247 14.9976 13.9344 15.4011C13.9341 15.5567 13.9476 15.7771 13.9659 16.0802C14.0338 17.1902 14.1602 19.256 13.8227 21.5955C13.5092 23.7695 14.2003 25.8973 15.7185 27.4335C15.8743 27.5908 16.0381 27.7406 16.2092 27.8822C15.5334 28.584 14.0648 30.136 12.5014 31.9596ZM16.7162 26.5064C15.4926 25.2682 14.9368 23.546 15.1913 21.7809C15.5475 19.3096 15.4161 17.1573 15.3454 16.0009C15.3354 15.8391 15.3266 15.6973 15.3216 15.5855C15.8978 15.09 18.5679 13.7027 20.4722 14.1258C21.3411 14.3187 21.8706 14.8925 22.0907 15.8795C23.2299 20.9891 22.2414 23.1187 21.4472 24.8302C21.2835 25.1827 21.1288 25.516 20.9968 25.8607L20.8944 26.1273C20.6353 26.8011 20.3942 27.4276 20.2448 28.0225C18.9439 28.0189 17.6784 27.48 16.7162 26.5062M16.9159 33.3971C16.536 33.3051 16.1944 33.1453 15.9939 33.0127C16.1614 32.9364 16.4593 32.8324 16.9761 32.7291C19.4768 32.23 19.863 31.8776 20.7064 30.8393C20.8997 30.6011 21.1189 30.3313 21.4224 30.0025L21.4228 30.0022C21.8749 29.5113 22.0817 29.5945 22.4567 29.7455C22.7606 29.8673 23.0567 30.2367 23.1767 30.6433C23.2335 30.8353 23.2973 31.1996 23.0886 31.4833C21.3268 33.8753 18.7596 33.8445 16.9159 33.3971ZM30.0032 45.2065C26.9439 45.8422 25.8608 44.3285 25.1469 42.5982C24.6863 41.4811 24.4598 36.4436 24.6204 30.8805C24.6225 30.8065 24.6116 30.7351 24.5906 30.6678C24.5718 30.535 24.5433 30.4036 24.5051 30.2747C24.2663 29.4653 23.6841 28.7882 22.9856 28.5075C22.7081 28.396 22.1989 28.1915 21.5869 28.3433C21.7174 27.8218 21.9437 27.2329 22.1891 26.5953L22.2921 26.3271C22.4079 26.0247 22.5534 25.7115 22.7072 25.3798C23.5384 23.5893 24.6767 21.1367 23.4413 15.5962C22.9785 13.5209 21.4331 12.5075 19.0905 12.7429C17.6861 12.8838 16.4012 13.4333 15.7603 13.7484C15.6225 13.816 15.4965 13.8815 15.3788 13.9451C15.5576 11.8542 16.2334 7.94655 18.7613 5.47418C20.3529 3.91782 22.4726 3.14909 25.0553 3.19055C30.144 3.27127 33.4073 5.80364 35.2489 7.914C36.8359 9.73236 37.6952 11.5642 38.0381 12.5522C35.4591 12.2978 33.705 12.7915 32.8159 14.0242C30.8814 16.7056 33.8741 21.91 35.3124 24.4113C35.5763 24.8696 35.8039 25.2658 35.8755 25.4342C36.3439 26.5349 36.9503 27.2698 37.3929 27.8062C37.5287 27.9705 37.6603 28.13 37.7604 28.2693C36.9793 28.4876 35.5763 28.9922 35.7041 31.5142C35.601 32.7796 34.8677 38.7044 34.4951 40.7976C34.0033 43.5631 32.9539 44.5929 30.0032 45.2065ZM42.7727 31.0365C41.9739 31.396 40.6373 31.6656 39.3675 31.7236C37.965 31.7873 37.251 31.5713 37.083 31.4384C37.0043 29.8667 37.6074 29.7025 38.2459 29.5287C38.3462 29.5015 38.4441 29.4747 38.5386 29.4427C38.5973 29.4891 38.6616 29.5351 38.7321 29.5802C39.8593 30.3016 41.8699 30.3795 44.7084 29.8113L44.7396 29.8053C44.3567 30.1524 43.7016 30.6182 42.7727 31.0365Z" fill="white"/>
</g>
<defs>
<clipPath id="clip0_29_32">
<rect width="48" height="48" fill="white"/>
</clipPath>
</defs>
</svg>
