<svg width="55" height="55" viewBox="0 0 55 55" fill="none" xmlns="http://www.w3.org/2000/svg">
<path d="M27.5 24.4062C29.707 24.4062 31.4961 22.6171 31.4961 20.4102C31.4961 18.2032 29.707 16.4141 27.5 16.4141C25.293 16.4141 23.5039 18.2032 23.5039 20.4102C23.5039 22.6171 25.293 24.4062 27.5 24.4062Z" fill="#61DAFB"/>
<path d="M27.5 35.1055C30.6367 38.1562 33.7305 39.9609 36.2227 39.9609C37.0391 39.9609 37.8125 39.7891 38.457 39.4023C40.6914 38.1133 41.5078 34.8906 40.7344 30.293C40.6055 29.4766 40.4336 28.6602 40.2188 27.8008C41.0781 27.543 41.8516 27.2852 42.625 27.0273C46.9648 25.3516 49.3711 23.0313 49.3711 20.4961C49.3711 17.918 46.9648 15.5977 42.625 13.9648C41.8516 13.6641 41.0781 13.4063 40.2188 13.1914C40.4336 12.332 40.6055 11.5156 40.7344 10.6992C41.4648 6.01562 40.6484 2.75 38.4141 1.46094C37.7695 1.07422 36.9961 0.902344 36.1797 0.902344C33.7305 0.902344 30.5938 2.70703 27.457 5.75781C24.3633 2.70703 21.2695 0.902344 18.7773 0.902344C17.9609 0.902344 17.1875 1.07422 16.543 1.46094C14.3086 2.75 13.4922 5.97266 14.2656 10.5703C14.3945 11.3867 14.5664 12.2031 14.7813 13.0625C13.9219 13.3203 13.1484 13.5781 12.375 13.8359C8.03516 15.5117 5.62891 17.832 5.62891 20.3672C5.62891 22.9453 8.03516 25.2656 12.375 26.8984C13.1484 27.1992 13.9219 27.457 14.7813 27.6719C14.5664 28.5313 14.3945 29.3477 14.2656 30.1641C13.5352 34.7617 14.3516 38.0273 16.543 39.2734C17.1875 39.6602 17.9609 39.832 18.7773 39.832C21.2695 39.918 24.3633 38.1133 27.5 35.1055ZM25.0938 29.3047C25.8672 29.3477 26.6836 29.3477 27.5 29.3477C28.3164 29.3477 29.1328 29.3477 29.9062 29.3047C29.1328 30.3359 28.3164 31.2813 27.5 32.1836C26.6836 31.2813 25.8672 30.3359 25.0938 29.3047ZM19.7656 24.8789C20.1953 25.6094 20.582 26.2969 21.0547 26.9844C19.7227 26.8125 18.4766 26.5977 17.2734 26.3398C17.6602 25.1797 18.0898 23.9766 18.6055 22.7734C18.9492 23.4609 19.3359 24.1914 19.7656 24.8789ZM17.2734 14.5234C18.4766 14.2656 19.7227 14.0508 21.0547 13.8789C20.625 14.5664 20.1953 15.2539 19.7656 15.9844C19.3359 16.7148 18.9492 17.4023 18.6055 18.1328C18.0469 16.8867 17.6172 15.6836 17.2734 14.5234ZM19.6367 20.4102C20.1953 19.25 20.7969 18.0898 21.4844 16.9297C22.1289 15.8125 22.8594 14.6953 23.5898 13.5781C24.8789 13.4922 26.168 13.4492 27.5 13.4492C28.875 13.4492 30.1641 13.4922 31.4102 13.5781C32.1836 14.6953 32.8711 15.8125 33.5156 16.9297C34.2031 18.0898 34.8047 19.25 35.3633 20.4102C34.8047 21.5703 34.2031 22.7305 33.5156 23.8906C32.8711 25.0078 32.1406 26.125 31.4102 27.2422C30.1211 27.3281 28.832 27.3711 27.5 27.3711C26.125 27.3711 24.8359 27.3281 23.5898 27.2422C22.8164 26.125 22.1289 25.0078 21.4844 23.8906C20.7969 22.7305 20.1953 21.5703 19.6367 20.4102ZM36.4375 18.0898L35.2773 15.9414C34.8477 15.2109 34.4609 14.5234 33.9883 13.8359C35.3203 14.0078 36.5664 14.2227 37.7695 14.4805C37.3828 15.6836 36.9531 16.8867 36.4375 18.0898ZM36.4375 22.7305C36.9531 23.9336 37.3828 25.1367 37.7695 26.2969C36.5664 26.5547 35.3203 26.7695 33.9883 26.9414C34.418 26.2539 34.8477 25.5664 35.2773 24.8359C35.6641 24.1914 36.0508 23.4609 36.4375 22.7305ZM37.4258 37.6406C37.082 37.8555 36.6523 37.9414 36.1797 37.9414C34.0742 37.9414 31.4531 36.2227 28.875 33.6445C30.1211 32.3125 31.3242 30.8086 32.5273 29.1328C34.5469 28.9609 36.4805 28.6602 38.2852 28.2305C38.5 29.0039 38.6289 29.7773 38.7578 30.5508C39.3594 34.2031 38.8867 36.8242 37.4258 37.6406ZM39.6602 14.9961C44.4727 16.3711 47.3516 18.4766 47.3516 20.4102C47.3516 22.0859 45.375 23.7617 41.8945 25.0938C41.207 25.3516 40.4336 25.6094 39.6602 25.8242C39.1016 24.0625 38.4141 22.2578 37.5547 20.4102C38.4141 18.5625 39.1445 16.7578 39.6602 14.9961ZM36.2227 2.87891C36.6953 2.87891 37.082 2.96484 37.4687 3.17969C38.8867 3.99609 39.4023 6.57422 38.8008 10.2695C38.6719 11 38.5 11.7734 38.3281 12.5898C36.5234 12.2031 34.5898 11.9023 32.5703 11.6875C31.4102 10.0117 30.1641 8.50781 28.918 7.17578C31.4961 4.64063 34.1172 2.87891 36.2227 2.87891ZM29.9062 11.5156C29.1328 11.4727 28.3164 11.4727 27.5 11.4727C26.6836 11.4727 25.8672 11.4727 25.0938 11.5156C25.8672 10.4844 26.6836 9.53906 27.5 8.63672C28.3164 9.53906 29.1328 10.5273 29.9062 11.5156ZM17.5742 3.17969C17.918 2.96484 18.3477 2.87891 18.8203 2.87891C20.9258 2.87891 23.5469 4.59766 26.125 7.17578C24.8789 8.50781 23.6758 10.0117 22.4727 11.6875C20.4531 11.8594 18.5195 12.1602 16.7148 12.5898C16.5 11.8164 16.3711 11.043 16.2422 10.2695C15.6406 6.61719 16.1133 4.03906 17.5742 3.17969ZM15.3398 25.8242C10.5273 24.4492 7.64844 22.3438 7.64844 20.4102C7.64844 18.7344 9.625 17.0586 13.1055 15.7266C13.793 15.4687 14.5664 15.2109 15.3398 14.9961C15.8984 16.7578 16.5859 18.5625 17.4453 20.4102C16.5859 22.2578 15.8555 24.1055 15.3398 25.8242ZM16.2422 30.5508C16.3711 29.8203 16.543 29.0469 16.7148 28.2305C18.5195 28.6172 20.4531 28.918 22.4727 29.1328C23.6328 30.8086 24.8789 32.3125 26.125 33.6445C23.5469 36.1797 20.9258 37.9414 18.8203 37.9414C18.3477 37.9414 17.9609 37.8555 17.5742 37.6406C16.1133 36.8242 15.6406 34.2031 16.2422 30.5508ZM14.4375 48.2539C15.3828 47.0938 15.4258 45.8047 14.9102 44.5156C14.3945 43.2266 13.3203 42.625 11.9883 42.582C10.3984 42.5391 8.76563 42.582 7.17578 42.582H6.875V53.7109H8.16406V49.5H10.1836C10.4414 49.5 10.6562 49.5859 10.7852 49.8008L13.3633 53.7969C13.4063 53.8828 13.5352 54.0117 13.6211 54.0117H15.2969C14.2656 52.4219 13.2773 50.918 12.2461 49.3711C13.1484 49.2422 13.9219 48.9414 14.4375 48.2539ZM8.16406 48.168V43.9141H8.63672C9.625 43.9141 10.6563 43.8711 11.6445 43.957C12.8047 44 13.6211 44.9023 13.6211 46.0625C13.6211 47.2227 12.6758 48.125 11.5156 48.168C10.4844 48.2109 9.45312 48.168 8.16406 48.168ZM24.793 48.7266C24.1055 45.7188 21.3555 44.9453 19.25 45.8906C17.6172 46.6211 16.8867 48.0391 16.8438 49.8008C16.8008 51.1328 17.1875 52.3359 18.2188 53.2383C19.3789 54.2695 20.7969 54.3984 22.2578 54.1406C23.0742 53.9688 23.8047 53.582 24.3633 52.9805C24.1484 52.6797 23.9336 52.3789 23.7187 52.1211C22.5156 53.1523 21.1836 53.4961 19.7227 52.8086C18.7773 52.3359 18.3047 51.1758 18.2188 50.3164H24.8789V49.7578C24.9219 49.3711 24.8789 49.0273 24.793 48.7266ZM18.3047 49.4141C18.1758 48.125 19.4648 46.75 20.8828 46.75C22.5156 46.707 23.5469 47.6953 23.5898 49.4141H18.3047ZM31.4961 45.6758C30.8516 45.5469 30.1641 45.5039 29.5195 45.5469C28.4883 45.6328 27.5859 46.1055 26.8555 46.8789C27.0703 47.1797 27.2422 47.4805 27.5 47.8242C27.5859 47.7383 27.6719 47.6523 27.7578 47.6094C28.4453 46.9648 29.2617 46.6211 30.25 46.707C31.0234 46.75 31.7539 47.0078 31.9688 47.7812C32.1406 48.3828 32.0977 49.0273 32.1406 49.6719C32.0117 49.6719 31.9688 49.6289 31.9258 49.5859C30.8945 48.7266 29.7344 48.5547 28.4883 48.8555C27.3281 49.1562 26.5977 50.0586 26.5117 51.2187C26.4258 52.5508 27.0273 53.5391 28.1875 54.0117C28.918 54.3125 29.7344 54.3125 30.5078 54.1406C31.1094 54.0117 31.3672 53.668 32.2266 53.1953V53.7539H33.4297C33.4297 52.0352 33.4727 49.9297 33.4297 47.9531C33.4297 46.707 32.6992 45.9336 31.4961 45.6758ZM32.0977 51.0898C32.0547 51.2188 32.0977 51.3477 32.0977 51.4766C32.0977 52.3789 31.8828 52.6797 31.0234 53.0234C30.4219 53.2383 29.7773 53.3242 29.1328 53.1094C28.4023 52.8945 27.8867 52.25 27.8867 51.5195C27.8438 50.7891 28.3164 50.0586 29.0469 49.8438C30.0352 49.5 30.9375 49.7148 31.7539 50.3164C32.0117 50.5312 32.1836 50.7461 32.0977 51.0898ZM38.8008 46.8359C39.918 46.4922 40.9492 46.707 41.7227 47.6523L41.8516 47.7383C42.1523 47.4805 42.4102 47.2227 42.7539 46.9219C42.625 46.793 42.582 46.707 42.4961 46.5781C41.25 45.2461 38.8008 45.0742 37.2969 46.1484C35.1914 47.6953 35.2344 50.7031 36.2656 52.293C37.2539 53.7969 38.6719 54.3125 40.3477 54.0977C41.3359 53.9688 42.1523 53.4961 42.7969 52.6797C42.4961 52.4219 42.1953 52.1641 41.8945 51.8633C41.8086 51.9492 41.7656 51.9922 41.7227 52.0781C40.5625 53.3672 38.6289 53.2383 37.5977 51.8633C36.9961 51.0469 36.8672 50.1016 37.0391 49.1563C37.125 48.082 37.6836 47.2227 38.8008 46.8359ZM47.7383 52.6797C47.6523 52.7227 47.6094 52.7656 47.6094 52.7656C47.2656 53.0234 46.9219 53.0664 46.5352 52.9375C46.1484 52.7656 46.1055 52.4219 46.0625 52.0781V47.1797C46.0625 47.0938 46.0625 47.2656 46.1055 46.8359H47.7383V45.5469H46.0195V43.3984H44.7305V45.7188H43.6133C43.5273 45.7188 43.3984 45.8047 43.3984 45.8906C43.3555 46.1914 43.3984 46.4063 43.3984 46.8359H44.7734V52.3359C44.7734 53.0234 44.9453 53.625 45.5469 53.9688C46.1914 54.3555 47.4375 54.2695 47.9961 53.7969C48.082 53.7539 48.125 53.582 48.125 53.5391C47.9961 53.2812 47.8672 52.9805 47.7383 52.6797Z" fill="#61DAFB"/>
</svg>
